# xmcd
#
# Track frame offsets:
#	150
#	22439
#	39705
#	58714
#	74428
#	100102
#	122570
#	147088
#	162582
#	182770
#	186468
#
# Disc length: 2730 seconds
# Revision: 0
# Processed by: cddbd v1.5.2PL0 Copyright (c) Steve Scherf et al.
# Submitted via: dBpowerAMP V12.0
#
DISCID=a80aa80b
DTITLE=Grant Sabin - Bourbon and Milk
DYEAR=2017
DGENRE=Blues
TTITLE0=Spider Blues
TTITLE1=Can't Tell Myself
TTITLE2=Santuary
TTITLE3=Thorns Upon The Vine
TTITLE4=Homesick
TTITLE5=Hollow Tree Blues
TTITLE6=Bliss and Bane
TTITLE7=When My Mind is Gone
TTITLE8=Sit Quietly Son
TTITLE9=Dog Track
TTITLE10=Tower
EXTD=
EXTT0=
EXTT1=
EXTT2=
EXTT3=
EXTT4=
EXTT5=
EXTT6=
EXTT7=
EXTT8=
EXTT9=
EXTT10=
PLAYORDER=
